<svg width="32" height="32" viewBox="0 0 32 32" fill="none" xmlns="http://www.w3.org/2000/svg">
<path d="M16 32C7.17552 32 0 24.8245 0 16C0 7.17552 7.17552 0 16 0C24.8245 0 32 7.17552 32 16C32 24.8245 24.8245 32 16 32ZM16 1.93237C8.24477 1.93237 1.93237 8.24477 1.93237 16C1.93237 23.7552 8.24477 30.0676 16 30.0676C23.7552 30.0676 30.0676 23.7552 30.0676 16C30.0676 8.24477 23.7617 1.93237 16 1.93237Z" fill="#FFED00"/>
<path d="M17.1659 13.9517C17.4106 13.6747 17.6167 13.3913 17.868 13.153C18.6473 12.4187 19.5684 12.0451 20.6441 12.058C21.2367 12.058 21.8229 12.1031 22.3897 12.2705C23.6973 12.6506 24.4509 13.5459 24.8116 14.8213C25.0821 15.7746 25.1337 16.7601 25.1337 17.7456C25.1337 19.8196 25.1337 21.9002 25.1337 23.9742C25.1337 24.1675 25.0821 24.219 24.8889 24.219C23.8196 24.2126 22.7504 24.2126 21.6812 24.219C21.4944 24.219 21.4493 24.161 21.4557 23.9871C21.4557 22.0097 21.4622 20.0322 21.4557 18.0612C21.4557 17.5652 21.4235 17.0692 21.2818 16.5926C21.0242 15.7037 20.3929 15.2528 19.4589 15.3043C18.19 15.3688 17.533 16 17.3655 17.2882C17.3269 17.5974 17.3076 17.9066 17.3076 18.2158C17.3076 20.1353 17.3076 22.0612 17.3076 23.9807C17.3076 24.1739 17.2625 24.2319 17.0628 24.2254C15.9871 24.219 14.905 24.219 13.8293 24.2254C13.6554 24.2254 13.6039 24.1804 13.6039 24.0064C13.6039 20.1997 13.6039 16.3929 13.6039 12.5926C13.6039 12.4058 13.6683 12.3607 13.8422 12.3607C14.8663 12.3672 15.8905 12.3672 16.9147 12.3607C17.1014 12.3607 17.153 12.4187 17.1465 12.599C17.1337 13.0564 17.1465 13.5072 17.1465 13.9646L17.1659 13.9517Z" fill="#FFED00"/>
<path d="M11.3043 18.2995C11.3043 20.1804 11.3043 22.0676 11.3043 23.9485C11.3043 24.1546 11.2528 24.219 11.0338 24.219C9.96457 24.2061 8.89533 24.2126 7.82609 24.219C7.65217 24.219 7.60064 24.1804 7.60064 24C7.60064 20.1868 7.60064 16.38 7.60064 12.5668C7.60064 12.4122 7.63929 12.3543 7.80676 12.3543C8.88889 12.3607 9.97746 12.3607 11.0596 12.3543C11.2657 12.3543 11.2979 12.4316 11.2979 12.6119C11.2979 14.5121 11.2979 16.4058 11.2979 18.306L11.3043 18.2995Z" fill="#FFED00"/>
<path d="M11.5942 8.57327C11.5942 9.75201 10.6345 10.7182 9.45572 10.7182C8.28986 10.7182 7.32367 9.75201 7.31723 8.59259C7.31723 7.41385 8.27697 6.44767 9.45572 6.44767C10.6216 6.44767 11.5878 7.40741 11.5878 8.57327H11.5942Z" fill="#FFED00"/>
</svg>
